Coordinates
version=1
nRows=12
nColumns=34
inDegrees=yes

Units are S.I. units (second, meters, Newtons, ...)
Angles are in degrees.

endheader
time	pelvis_tilt	pelvis_list	pelvis_rotation	pelvis_tx	pelvis_ty	pelvis_tz	hip_flexion_r	hip_adduction_r	hip_rotation_r	knee_angle_r	ankle_angle_r	subtalar_angle_r	mtp_angle_r	hip_flexion_l	hip_adduction_l	hip_rotation_l	knee_angle_l	socket_flexion	socket_adduction	socket_rotation	socket_tx	socket_ty	socket_tz	pros_ankle_rx	pros_ankle_ry	pros_ankle_rz	pros_ankle_tx	pros_ankle_ty	pros_ankle_tz	foot_flex	lumbar_extension	lumbar_bending	lumbar_rotation
      0.60416667	     -5.39311726	     -3.08200218	     12.61649751	      0.03297001	      1.01716657	      0.31471028	     27.67649876	     -0.95488549	    -13.77492268	     -0.31637370	     12.42804699	      7.34309131	     11.95128162	     -6.34534435	     -2.31703131	     11.67330520	      7.96988397	     42.93654372	      0.00000000	      0.00000000	      0.00000000	      0.01954027	      0.00000000	      0.00000000	      0.00000000	      0.00000000	      0.00000000	      0.00000000	      0.00000000	     29.87257946	     -7.76446017	     -1.37115532	    -40.10934359
      0.60833333	     -5.34875877	     -3.12491698	     12.79953375	      0.03932314	      1.01630799	      0.31480186	     27.64474590	     -0.91519395	    -13.52654109	     -0.57526079	     12.22811257	      7.43879614	     11.94774738	     -6.50379159	     -2.45867731	     11.77801538	      7.69510153	     43.12440629	      0.00000000	      0.00000000	      0.00000000	      0.01994551	      0.00000000	      0.00000000	      0.00000000	      0.00000000	      0.00000000	      0.00000000	      0.00000000	     29.94441485	     -7.70355238	     -1.29650470	    -40.10691594
      0.61250000	     -5.28309059	     -3.17694291	     12.94176910	      0.04546470	      1.01548582	      0.31490446	     27.70591734	     -0.87881565	    -13.28930394	     -1.03666087	     11.67947891	      7.56210250	     11.95304601	     -6.61705030	     -2.59648978	     11.82876117	      7.35646889	     43.35950731	      0.00000000	      0.00000000	      0.00000000	      0.02054891	      0.00000000	      0.00000000	      0.00000000	      0.00000000	      0.00000000	      0.00000000	      0.00000000	     30.14205907	     -7.79019656	     -1.01391944	    -40.13515403
      0.61666667	     -5.20900409	     -3.27024322	     13.07525574	      0.05171567	      1.01469029	      0.31502221	     27.77911891	     -0.79739368	    -13.14444854	     -1.56704494	     11.11879527	      7.63248809	     12.01823422	     -6.72145156	     -2.77662296	     11.85529889	      7.01614878	     43.65284250	      0.00000000	      0.00000000	      0.00000000	      0.02106113	      0.00000000	      0.00000000	      0.00000000	      0.00000000	      0.00000000	      0.00000000	      0.00000000	     30.24638947	     -7.84519288	     -0.79113739	    -40.16087708
      0.62083333	     -5.11901890	     -3.35038659	     13.25057730	      0.05816360	      1.01401241	      0.31513608	     27.69142258	     -0.70397187	    -12.91656084	     -1.93467287	     10.86962481	      7.70454267	     12.03687359	     -6.85087789	     -2.95933367	     11.93565374	      6.67280247	     43.91073445	      0.00000000	      0.00000000	      0.00000000	      0.02161225	      0.00000000	      0.00000000	      0.00000000	      0.00000000	      0.00000000	      0.00000000	      0.00000000	     30.22485580	     -7.73625546	     -0.73270570	    -40.16575410
      0.62500000	     -5.24482470	     -3.45091667	     13.20943931	      0.06429535	      1.01280233	      0.31544347	     28.52423671	     -0.74838962	    -13.19758597	     -3.45929858	     10.01649205	      8.29981578	     14.64984897	     -6.67082454	     -3.05666077	     11.79799803	      6.81420933	     45.13572435	      0.00000000	      0.00000000	      0.00000000	      0.02373684	      0.00000000	      0.00000000	      0.00000000	      0.00000000	      0.00000000	      0.00000000	      0.00000000	     30.72439357	     -7.59395987	     -0.46965065	    -40.10762852
      0.62916667	     -5.09658602	     -3.59152935	     13.35956899	      0.07050762	      1.01225137	      0.31547528	     28.52008648	     -0.61751013	    -13.09036658	     -4.08695518	      9.42051968	      8.32209627	     14.67172137	     -6.74462651	     -3.28186300	     11.85679064	      6.37330383	     45.50076259	      0.00000000	      0.00000000	      0.00000000	      0.02447682	      0.00000000	      0.00000000	      0.00000000	      0.00000000	      0.00000000	      0.00000000	      0.00000000	     30.80382033	     -7.74028056	     -0.08621845	    -40.08301428
      0.63333333	     -4.93044303	     -3.75149808	     13.44538505	      0.07680242	      1.01174423	      0.31562660	     28.56293431	     -0.44866331	    -13.05569285	     -4.84262641	      8.75413912	      8.30445747	     14.73334625	     -6.82827744	     -3.52689976	     11.82132550	      5.92799755	     45.88501328	      0.00000000	      0.00000000	      0.00000000	      0.02529200	      0.00000000	      0.00000000	      0.00000000	      0.00000000	      0.00000000	      0.00000000	      0.00000000	     30.86368233	     -7.85935085	      0.24343486	    -40.03685076
      0.63750000	     -4.77033891	     -3.91239707	     13.51690844	      0.08308557	      1.01126182	      0.31577429	     28.62079652	     -0.27575969	    -12.99334695	     -5.63148764	      8.11416222	      8.29072103	     14.80834939	     -6.88171644	     -3.76168866	     11.77311457	      5.44411200	     46.28045776	      0.00000000	      0.00000000	      0.00000000	      0.02614637	      0.00000000	      0.00000000	      0.00000000	      0.00000000	      0.00000000	      0.00000000	      0.00000000	     30.92396076	     -7.94492663	      0.58815751	    -39.96895182
      0.64166667	     -4.61439099	     -4.09380524	     13.55303565	      0.08935464	      1.01081402	      0.31602235	     28.73324383	     -0.08269382	    -13.00621504	     -6.52208290	      7.46524017	      8.23794285	     14.92444649	     -6.88555381	     -4.00880513	     11.67852751	      4.92503862	     46.72549557	      0.00000000	      0.00000000	      0.00000000	      0.02708239	      0.00000000	      0.00000000	      0.00000000	      0.00000000	      0.00000000	      0.00000000	      0.00000000	     30.93852809	     -8.06697795	      0.94935739	    -39.84857899
      0.64583333	     -4.43794956	     -4.27878499	     13.57608883	      0.09561440	      1.01045374	      0.31626484	     28.80644867	      0.12922098	    -12.96780969	     -7.39139278	      6.85728067	      8.20741438	     15.00747144	     -6.88232147	     -4.25248811	     11.59930903	      4.35972041	     47.17051985	      0.00000000	      0.00000000	      0.00000000	      0.02811202	      0.00000000	      0.00000000	      0.00000000	      0.00000000	      0.00000000	      0.00000000	      0.00000000	     30.96396006	     -8.14620272	      1.31172613	    -39.74499450
      0.65000000	     -4.29348454	     -4.49047328	     13.56139886	      0.10186100	      1.01011184	      0.31654746	     28.97657282	      0.34867813	    -13.06506386	     -8.38006273	      6.25737906	      8.11604410	     15.13809370	     -6.79813484	     -4.50579050	     11.43923580	      3.76860359	     47.67623255	      0.00000000	      0.00000000	      0.00000000	      0.02924911	      0.00000000	      0.00000000	      0.00000000	      0.00000000	      0.00000000	      0.00000000	      0.00000000	     30.90612419	     -8.28712321	      1.71323581	    -39.55904171
